<svg width="64" height="64" viewBox="0 0 64 64" fill="none" xmlns="http://www.w3.org/2000/svg">
<rect width="64" height="64" rx="10" fill="white"/>
<rect width="64" height="64" rx="10" fill="white"/>
<path d="M42.9453 19.6348H41.3633L31.1504 43.1895H31.0449L20.7969 19.6348H19.25V45H20.5859V22.5176H20.6562L30.4297 44.9473H31.7656L41.5391 22.5176H41.6094V45H42.9453V19.6348Z" fill="url(#paint0_linear)"/>
<path d="M52 12.5C52.1326 12.5 52.2598 12.5527 52.3536 12.6464C52.4473 12.7402 52.5 12.8674 52.5 13V17C52.5 17.1326 52.4473 17.2598 52.3536 17.3536C52.2598 17.4473 52.1326 17.5 52 17.5H47.207C46.9418 17.5001 46.6875 17.6055 46.5 17.793L45.5 18.793V13C45.5 12.8674 45.5527 12.7402 45.6464 12.6464C45.7402 12.5527 45.8674 12.5 46 12.5H52ZM46 12C45.7348 12 45.4804 12.1054 45.2929 12.2929C45.1054 12.4804 45 12.7348 45 13V19.3965C45 19.446 45.0147 19.4943 45.0422 19.5354C45.0697 19.5766 45.1088 19.6086 45.1545 19.6275C45.2002 19.6464 45.2505 19.6513 45.299 19.6416C45.3475 19.6319 45.3921 19.608 45.427 19.573L46.8535 18.1465C46.9472 18.0527 47.0744 18 47.207 18H52C52.2652 18 52.5196 17.8946 52.7071 17.7071C52.8946 17.5196 53 17.2652 53 17V13C53 12.7348 52.8946 12.4804 52.7071 12.2929C52.5196 12.1054 52.2652 12 52 12H46Z" fill="#5B5B5B"/>
<path d="M48.533 14.38C48.4356 14.2283 48.2916 14.1123 48.1227 14.0495C47.9537 13.9867 47.7689 13.9804 47.5961 14.0316C47.4233 14.0828 47.2717 14.1887 47.1642 14.3334C47.0567 14.4781 46.9991 14.6537 47 14.834C47.0001 14.9833 47.0403 15.1298 47.1163 15.2582C47.1924 15.3866 47.3015 15.4923 47.4324 15.5641C47.5632 15.636 47.711 15.6713 47.8602 15.6666C48.0094 15.6618 48.1545 15.617 48.2805 15.537C48.215 15.7315 48.093 15.939 47.892 16.147C47.8536 16.1868 47.8325 16.2402 47.8334 16.2955C47.8344 16.3508 47.8572 16.4035 47.897 16.442C47.9368 16.4804 47.9902 16.5015 48.0455 16.5006C48.1009 16.4996 48.1536 16.4768 48.192 16.437C48.935 15.667 48.8385 14.83 48.533 14.381V14.38ZM50.533 14.38C50.4356 14.2283 50.2916 14.1123 50.1227 14.0495C49.9537 13.9867 49.7689 13.9804 49.5961 14.0316C49.4233 14.0828 49.2717 14.1887 49.1642 14.3334C49.0567 14.4781 48.9991 14.6537 49 14.834C49.0001 14.9833 49.0403 15.1298 49.1163 15.2582C49.1924 15.3866 49.3015 15.4923 49.4324 15.5641C49.5632 15.636 49.711 15.6713 49.8602 15.6666C50.0094 15.6618 50.1545 15.617 50.2805 15.537C50.215 15.7315 50.093 15.939 49.892 16.147C49.8536 16.1868 49.8325 16.2402 49.8334 16.2955C49.8344 16.3508 49.8572 16.4035 49.897 16.442C49.9368 16.4804 49.9902 16.5015 50.0455 16.5006C50.1009 16.4996 50.1536 16.4768 50.192 16.437C50.935 15.667 50.8385 14.83 50.533 14.381V14.38Z" fill="#5B5B5B"/>
<defs>
<linearGradient id="paint0_linear" x1="46" y1="47.1591" x2="17.0037" y2="22.3886" gradientUnits="userSpaceOnUse">
<stop stop-color="#0F427D"/>
<stop offset="1" stop-color="#55E5FB"/>
</linearGradient>
</defs>
</svg>
